<svg width="46" height="46" viewBox="0 0 46 46" fill="none" xmlns="http://www.w3.org/2000/svg">
<rect opacity="0.1" width="46" height="46" rx="5" fill="#FE753F"/>
<path d="M29.662 22.4353H16.3287C15.8425 22.4353 15.4259 22.8288 15.4259 23.3381V24.3335H30.5416V23.3381C30.5648 22.8288 30.1481 22.4353 29.662 22.4353Z" fill="#FE753F"/>
<path d="M32.7407 16H13.25C12.5556 16 12 16.5556 12 17.25V23.1065C12 23.8009 12.5556 24.3565 13.25 24.3565H14.3843V23.3611C14.3843 22.2731 15.2639 21.4167 16.3287 21.4167H29.662C30.75 21.4167 31.6065 22.2963 31.6065 23.3611V24.3565H32.7407C33.4352 24.3565 33.9907 23.8009 33.9907 23.1065V17.2269C33.9907 16.5556 33.4352 16 32.7407 16ZM27.8333 19.0093H26.5602C26.2593 19.0093 26.0278 18.7778 26.0278 18.4769C26.0278 18.1759 26.2593 17.9444 26.5602 17.9444H27.8333C28.1343 17.9444 28.3657 18.1759 28.3657 18.4769C28.3426 18.7546 28.1111 19.0093 27.8333 19.0093ZM31.0741 19.0093H29.8009C29.5 19.0093 29.2685 18.7778 29.2685 18.4769C29.2685 18.1759 29.5 17.9444 29.8009 17.9444H31.0741C31.375 17.9444 31.6065 18.1759 31.6065 18.4769C31.6065 18.7546 31.375 19.0093 31.0741 19.0093Z" fill="#FE753F"/>
<path d="M25.1018 26.926L25.3333 26.5325C25.4953 26.2779 25.4027 25.9306 25.1481 25.7686C24.8935 25.6066 24.5463 25.6992 24.3842 25.9538L24.1527 26.3473C23.6898 27.1112 23.7592 28.0834 24.3148 28.7547C24.5463 29.0325 24.5926 29.426 24.4537 29.7501L24.2453 30.213C24.1296 30.4908 24.2685 30.8149 24.5463 30.9538C24.6157 30.9769 24.6851 31.0001 24.7546 31.0001C24.9629 31.0001 25.1713 30.8612 25.2639 30.6529L25.4722 30.1899C25.7731 29.4723 25.6574 28.6621 25.1713 28.0603C24.9166 27.7362 24.8935 27.2964 25.1018 26.926Z" fill="#FE753F"/>
<path d="M21.6064 26.926L21.8379 26.5325C21.9999 26.2779 21.9074 25.9306 21.6527 25.7686C21.3981 25.6066 21.0509 25.6992 20.8888 25.9538L20.6574 26.3473C20.1944 27.1112 20.2638 28.0834 20.8194 28.7547C21.0509 29.0325 21.0972 29.426 20.9583 29.7501L20.7499 30.213C20.6342 30.4908 20.7731 30.8149 21.0509 30.9538C21.1203 30.9769 21.1898 31.0001 21.2592 31.0001C21.4675 31.0001 21.6759 30.8612 21.7685 30.6529L21.9768 30.1899C22.2777 29.4723 22.162 28.6621 21.6759 28.0603C21.4212 27.7362 21.3981 27.2964 21.6064 26.926Z" fill="#FE753F"/>
<path d="M28.5972 26.926L28.8287 26.5325C28.9907 26.2779 28.8981 25.9306 28.6435 25.7686C28.3889 25.6066 28.0417 25.6992 27.8796 25.9538L27.6481 26.3473C27.1852 27.1112 27.2546 28.0834 27.8102 28.7547C28.0417 29.0325 28.0879 29.426 27.9491 29.7501L27.7407 30.213C27.625 30.4908 27.7639 30.8149 28.0417 30.9538C28.1111 30.9769 28.1805 31.0001 28.25 31.0001C28.4583 31.0001 28.6667 30.8612 28.7592 30.6529L28.9676 30.1899C29.2685 29.4723 29.1528 28.6621 28.6667 28.0603C28.412 27.7362 28.3889 27.2964 28.5972 26.926Z" fill="#FE753F"/>
<path d="M18.1112 26.926L18.3427 26.5325C18.5047 26.2779 18.4121 25.9306 18.1575 25.7686C17.9029 25.6066 17.5556 25.6992 17.3936 25.9538L17.1621 26.3473C16.6991 27.1112 16.7686 28.0834 17.3241 28.7547C17.5556 29.0325 17.6019 29.426 17.463 29.7501L17.2547 30.213C17.139 30.4908 17.2779 30.8149 17.5556 30.9538C17.6251 30.9769 17.6945 31.0001 17.764 31.0001C17.9723 31.0001 18.1806 30.8612 18.2732 30.6529L18.4816 30.1899C18.7825 29.4723 18.6667 28.6621 18.1806 28.0603C17.926 27.7362 17.9029 27.2964 18.1112 26.926Z" fill="#FE753F"/>
</svg>
