<svg width="64" height="64" viewBox="0 0 64 64" fill="none" xmlns="http://www.w3.org/2000/svg">
<g opacity="0.1" clip-path="url(#clip0_0_79)">
<path d="M38.2887 49.0101C36.6882 49.6813 36.017 51.5915 36.7398 53.1404L39.2696 58.4582C39.9925 59.9549 41.7478 60.6266 43.2967 59.9549C47.6852 58.0963 51.4541 55.6697 54.4486 52.7269C58.1143 49.2682 60.5925 45.2928 61.9348 40.9043C63.2772 36.4637 64 30.4236 64 22.7309L64 6.8807C64 5.17694 62.606 3.78296 60.9023 3.78296L40.612 3.78295C38.9082 3.78295 37.5143 5.17694 37.5143 6.8807L37.5143 27.171C37.5143 28.8752 38.9082 30.2687 40.612 30.2687L50.3183 30.2687C50.215 35.4838 48.9759 39.6652 46.7042 42.8151C44.8456 45.3439 42.0576 47.4091 38.2887 49.0101Z" fill="#2E6EFF"/>
<path d="M1.83716 49.0092C0.236653 49.6804 -0.434009 51.5907 0.288283 53.1395L2.81811 58.4052C3.54092 59.9024 5.29631 60.5736 6.84518 59.9024C11.182 58.0438 14.8998 55.6172 17.9454 52.726C21.6116 49.2152 24.1409 45.2398 25.4838 40.8513C26.8262 36.515 27.4968 30.4738 27.4968 22.7295L27.4968 6.87931C27.4968 5.17555 26.1029 3.78156 24.3991 3.78156L4.10884 3.78156C2.40508 3.78156 1.0111 5.17555 1.0111 6.87931L1.01109 27.1696C1.01109 28.8738 2.40508 30.2673 4.10884 30.2673L13.8667 30.2673C13.7635 35.4824 12.5239 39.6638 10.2527 42.8137C8.39406 45.343 5.60608 47.4082 1.83716 49.0092Z" fill="#2E6EFF"/>
</g>
<defs>
<clipPath id="clip0_0_79">
<rect width="64" height="64" fill="white" transform="translate(64 64) rotate(-180)"/>
</clipPath>
</defs>
</svg>
