<svg width="168" height="36" viewBox="0 0 168 36" fill="none" xmlns="http://www.w3.org/2000/svg">
<path fill-rule="evenodd" clip-rule="evenodd" d="M0.0569902 0.237278C-0.02358 0.36765 -0.0181044 0.660988 0.0695059 0.88914C0.192056 1.20829 0.612638 1.30372 1.89863 1.30372H3.56844L3.43207 21.7722L1.73723 21.9026C0.462449 22.0006 0.0423885 22.1299 0.0423885 22.4241C0.0423885 22.7568 0.848612 22.8256 5.45285 22.8856C10.7308 22.9544 10.8633 22.9432 10.8633 22.4293C10.8633 21.9547 10.6951 21.9026 9.16846 21.9026H7.47362V11.1351L9.74445 11.3096C13.2927 11.5823 13.8345 12.2021 14.2668 16.4827C14.7179 20.9477 15.2055 22.064 17.0477 22.8488C18.8554 23.6191 22.4931 23.0102 22.2829 21.9727C22.1875 21.5021 21.9105 21.476 20.3385 21.7902C19.1091 22.0358 18.7347 21.2658 18.4155 17.8376C18.27 16.2728 18.0226 14.5822 17.8659 14.0802C17.4761 12.8323 16.2135 11.5674 14.83 11.0392L13.6775 10.599L14.5711 10.1406C18.7647 7.98922 18.5149 2.65751 14.1244 0.613011C12.8708 0.0292034 12.5681 0.00495421 6.51121 0.00260751C3.00132 0.00104304 0.138603 0.105341 0.0569902 0.237278ZM79.7469 0.586676C79.8217 1.11364 79.9962 1.18117 81.46 1.25105L83.0897 1.3285V21.9026H81.3948C79.8739 21.9026 79.7 21.956 79.7 22.4241C79.7 22.9286 79.8739 22.9456 85.0453 22.9456C90.1731 22.9456 90.3905 22.925 90.3905 22.4366C90.3905 21.9941 90.177 21.9172 88.7609 21.8499L87.1312 21.7722L86.9894 11.9943H96.6484V21.9026H94.9536C93.4326 21.9026 93.2587 21.956 93.2587 22.4241C93.2587 22.9286 93.4326 22.9456 98.604 22.9456C103.775 22.9456 103.949 22.9286 103.949 22.4241C103.949 21.956 103.775 21.9026 102.254 21.9026H100.56V1.3285L102.189 1.25105C103.653 1.18117 103.827 1.11364 103.902 0.586676L103.986 0H93.2225L93.3057 0.586676C93.3805 1.11364 93.5549 1.18117 95.0188 1.25105L96.6484 1.3285V10.6905H87.0008V1.30372H88.6957C90.3298 1.30372 90.3905 1.28026 90.3905 0.651862V0H79.6637L79.7469 0.586676ZM7.66918 1.19213C7.56149 1.30138 7.47362 3.38291 7.47362 5.818V10.2455L9.44225 10.0791C10.5249 9.98757 11.6382 9.79097 11.9165 9.64209C12.8517 9.14146 13.3167 7.83565 13.307 5.73639C13.2966 3.49085 12.8176 2.30107 11.6899 1.71779C10.8404 1.27843 7.95548 0.901395 7.66918 1.19213ZM114.169 2.8781C110.011 3.72474 106.407 7.90996 106.096 12.2519C105.722 17.4814 108.825 21.914 113.704 23.1182C115.153 23.4757 115.734 23.5012 117.014 23.2629C120.197 22.671 122.821 20.6174 124.343 17.5273C125.147 15.8945 125.2 15.6186 125.2 13.0435C125.2 10.519 125.136 10.1638 124.396 8.6038C122.482 4.56382 118.057 2.08648 114.169 2.8781ZM22.3822 3.70962C22.4558 4.22798 22.6383 4.3122 23.8354 4.38104L25.2043 4.46004L25.2105 11.1604C25.2139 14.8458 25.3234 18.3218 25.4541 18.8847C26.2345 22.2499 29.729 24 34.1059 23.2178C35.637 22.9443 36.075 22.7328 37.1923 21.7284C39.1515 19.9668 39.2845 19.2959 39.2845 11.1784V4.46004L40.6534 4.38104C41.8461 4.31246 42.033 4.22668 42.1058 3.71562C42.1887 3.13181 42.1715 3.12894 38.6326 3.12894C35.0938 3.12894 35.0766 3.13181 35.1595 3.71562C35.2323 4.22668 35.4192 4.31246 36.6119 4.38104L37.9808 4.46004L37.975 11.4212C37.9685 19.3003 37.8543 19.8732 36.009 21.281C35.1074 21.9688 34.8406 22.0329 32.8798 22.0329C31.1052 22.0329 30.6353 21.9433 30.1506 21.5115C28.856 20.3587 28.7499 19.6756 28.6446 11.8125L28.5462 4.46004L30.0693 4.3813C31.3923 4.31272 31.5925 4.23372 31.5925 3.7808C31.5925 3.28148 31.3949 3.25618 26.9453 3.18813L22.2983 3.11668L22.3822 3.70962ZM42.8304 3.34797C42.7436 3.48851 42.7441 3.78993 42.8317 4.01808C42.9498 4.32602 43.3521 4.43266 44.3969 4.43266H45.8031V21.8765L44.3039 21.9547C43.1798 22.0134 42.8046 22.1307 42.8046 22.4241C42.8046 22.7482 43.5427 22.8486 47.1069 23.0094C49.8275 23.1322 52.0216 23.103 53.0751 22.9304C56.6671 22.3409 58.582 20.6051 58.7885 17.7518C58.9562 15.433 57.8686 13.6701 55.7221 12.7809C54.9631 12.4665 54.6432 11.9943 55.1892 11.9943C55.7185 11.9943 57.5171 10.106 57.7977 9.2554C58.4407 7.30738 57.4282 5.15232 55.3203 3.98262C54.0273 3.26531 53.9712 3.25853 48.5024 3.17587C45.0897 3.12425 42.9282 3.18969 42.8304 3.34797ZM59.9303 3.71562C60.0012 4.21494 60.1957 4.31402 61.2364 4.38104L62.459 4.46004L68.2272 14.6111V21.9026H66.7931C65.5329 21.9026 65.359 21.9657 65.359 22.4241C65.359 22.9263 65.5329 22.9456 70.0524 22.9456C74.5719 22.9456 74.7458 22.9263 74.7458 22.4241C74.7458 21.9657 74.5719 21.9026 73.3117 21.9026H71.8776V13.5924L76.7014 4.44753L77.8878 4.44023C79.1451 4.43214 79.7487 4.08066 79.5214 3.48825C79.415 3.21107 78.6789 3.12894 76.2978 3.12894C74.6006 3.12894 73.1462 3.23558 73.0656 3.36622C72.7107 3.94012 73.2588 4.43266 74.2522 4.43266C74.8105 4.43266 75.2673 4.49915 75.2673 4.58025C75.2673 4.87854 71.22 12.2477 71.0545 12.2514C70.8897 12.2548 66.6627 4.89653 66.6627 4.60606C66.6627 4.5281 67.1029 4.42771 67.6405 4.38312C68.4259 4.3182 68.6348 4.18678 68.7018 3.71562L68.7849 3.12894H59.8471L59.9303 3.71562ZM127.255 3.50754C126.999 4.17348 127.414 4.43266 128.735 4.43266H130.024V21.9026H128.59C127.329 21.9026 127.156 21.9657 127.156 22.4241C127.156 22.9197 127.329 22.9456 130.676 22.9456C134.022 22.9456 134.196 22.9197 134.196 22.4241C134.196 21.9657 134.022 21.9026 132.762 21.9026H131.327V14.4278C131.327 10.3169 131.381 7.00674 131.447 7.07245C131.512 7.13789 132.785 10.707 134.275 15.0033C135.953 19.8414 137.124 22.8415 137.35 22.8848C137.611 22.9343 138.31 21.2113 139.784 16.8877C140.922 13.5509 142.178 9.9409 142.575 8.86533L143.296 6.90974L143.322 21.9026H141.888C140.627 21.9026 140.454 21.9657 140.454 22.4241C140.454 22.9263 140.627 22.9456 145.147 22.9456C149.666 22.9456 149.84 22.9263 149.84 22.4241C149.84 21.9657 149.666 21.9026 148.406 21.9026H146.972V4.46004L148.341 4.38104C149.539 4.3122 149.72 4.22824 149.794 3.70779L149.879 3.11303L143.238 3.25931L141.843 7.30086C141.075 9.52371 140.02 12.5614 139.497 14.051L138.546 16.7596L133.874 3.12894H130.637C128.048 3.12894 127.371 3.20482 127.255 3.50754ZM150.669 3.7117C150.742 4.22746 150.927 4.3122 152.122 4.38104L153.491 4.46004V21.9026H152.057C150.793 21.9026 150.623 21.9652 150.623 22.4277C150.623 22.9445 150.754 22.9516 159.162 22.884L167.701 22.8152V19.6862C167.701 16.7547 167.669 16.5573 167.191 16.5573C166.815 16.5573 166.597 16.8504 166.356 17.6798C165.888 19.2983 165.077 20.4859 163.973 21.1709C163.149 21.6817 162.579 21.7832 160.075 21.8642L157.141 21.9589V13.0372H158.302C160.344 13.0372 161.184 13.7971 161.69 16.102C161.821 16.6984 162.024 16.9484 162.377 16.9484C162.852 16.9484 162.878 16.7114 162.878 12.3664C162.878 8.23224 162.835 7.79236 162.444 7.8685C162.19 7.91778 161.835 8.47525 161.588 9.21368C160.939 11.1536 160.24 11.7335 158.548 11.7335H157.141V4.38782L160.119 4.47543C162.872 4.55626 163.152 4.61258 163.805 5.2149C164.194 5.57342 164.792 6.49098 165.134 7.25392C165.586 8.26223 165.879 8.61736 166.207 8.554C166.599 8.47838 166.658 8.12533 166.658 5.86311V3.25931L150.585 3.12138L150.669 3.7117ZM113.544 4.26631C111.055 5.37082 109.953 8.14463 109.948 13.3152C109.943 19.1376 111.484 21.8658 114.917 22.114C117.062 22.2692 118.157 22.0032 119.222 21.0687C120.928 19.5702 121.444 17.6678 121.438 12.8884C121.432 8.04137 120.479 5.55543 118.206 4.45509C116.943 3.84338 114.701 3.75264 113.544 4.26631ZM49.3884 4.32393C49.281 4.43162 49.1928 6.14263 49.1928 8.12664V11.7335H50.8731C52.2693 11.7335 52.6761 11.6282 53.2784 11.1098C53.9285 10.5508 54.0137 10.2843 54.1019 8.5407C54.2064 6.47247 53.8104 5.21047 52.9058 4.72757C52.2735 4.39016 49.6259 4.0864 49.3884 4.32393ZM49.1928 21.9597L51.132 21.8616C52.7353 21.7808 53.1853 21.6562 53.7319 21.143C54.6758 20.2562 55.0116 18.9898 54.8737 16.8384C54.6807 13.8343 53.8424 13.0372 50.8754 13.0372H49.1928V21.9597ZM0.306002 33.1097C0.21448 33.2578 0.299222 33.4403 0.49426 33.5151C1.1529 33.7678 8.38936 33.5182 8.32156 33.245C8.23239 32.8839 0.52607 32.754 0.306002 33.1097ZM158.839 33.1097C158.747 33.2578 158.832 33.4403 159.027 33.5151C159.686 33.7678 166.922 33.5182 166.855 33.245C166.765 32.8839 159.059 32.754 158.839 33.1097Z" fill="#BF3448"/>
<path d="M15.1994 35.0504H16.9151V35.7221H14.3671V30.648H15.1994V35.0504Z" fill="#BF3448"/>
<path d="M22.3786 30.648V33.8822C22.3786 34.2668 22.4783 34.5564 22.6779 34.751C22.8823 34.9457 23.1646 35.0431 23.5248 35.0431C23.8898 35.0431 24.1721 34.9457 24.3717 34.751C24.5761 34.5564 24.6783 34.2668 24.6783 33.8822V30.648H25.5106V33.8676C25.5106 34.2814 25.4206 34.6318 25.2405 34.919C25.0604 35.2061 24.8195 35.4203 24.5177 35.5614C24.2159 35.7026 23.8825 35.7732 23.5175 35.7732C23.1524 35.7732 22.819 35.7026 22.5173 35.5614C22.2204 35.4203 21.9843 35.2061 21.8091 34.919C21.6339 34.6318 21.5463 34.2814 21.5463 33.8676V30.648H22.3786Z" fill="#BF3448"/>
<path d="M32.8657 33.1887L34.4427 35.7221H33.5082L32.362 33.8822L31.2887 35.7221H30.3615L31.9385 33.1887L30.3542 30.648H31.2887L32.4423 32.5024L33.5228 30.648H34.45L32.8657 33.1887Z" fill="#BF3448"/>
<path d="M40.1239 30.648V33.8822C40.1239 34.2668 40.2237 34.5564 40.4233 34.751C40.6277 34.9457 40.91 35.0431 41.2702 35.0431C41.6352 35.0431 41.9175 34.9457 42.1171 34.751C42.3215 34.5564 42.4237 34.2668 42.4237 33.8822V30.648H43.256V33.8676C43.256 34.2814 43.1659 34.6318 42.9859 34.919C42.8058 35.2061 42.5648 35.4203 42.2631 35.5614C41.9613 35.7026 41.6279 35.7732 41.2629 35.7732C40.8978 35.7732 40.5644 35.7026 40.2626 35.5614C39.9657 35.4203 39.7297 35.2061 39.5545 34.919C39.3792 34.6318 39.2916 34.2814 39.2916 33.8676V30.648H40.1239Z" fill="#BF3448"/>
<path d="M50.9177 35.7221L49.7496 33.6924H49.1144V35.7221H48.2821V30.648H50.0343C50.4237 30.648 50.7522 30.7161 51.0199 30.8524C51.2925 30.9887 51.4945 31.1712 51.6259 31.4C51.7622 31.6287 51.8303 31.8842 51.8303 32.1665C51.8303 32.4975 51.733 32.7993 51.5383 33.0718C51.3485 33.3395 51.054 33.5221 50.6549 33.6194L51.9106 35.7221H50.9177ZM49.1144 33.028H50.0343C50.3458 33.028 50.5795 32.9502 50.7352 32.7944C50.8958 32.6387 50.9761 32.4294 50.9761 32.1665C50.9761 31.9037 50.8983 31.6993 50.7425 31.5533C50.5868 31.4024 50.3507 31.3269 50.0343 31.3269H49.1144V33.028Z" fill="#BF3448"/>
<path d="M60.5975 30.648L58.9183 33.8822V35.7221H58.086V33.8822L56.3995 30.648H57.3267L58.5021 33.1376L59.6776 30.648H60.5975Z" fill="#BF3448"/>
<path d="M73.675 35.7221L72.5069 33.6924H71.8717V35.7221H71.0394V30.648H72.7916C73.181 30.648 73.5095 30.7161 73.7772 30.8524C74.0498 30.9887 74.2518 31.1712 74.3832 31.4C74.5195 31.6287 74.5876 31.8842 74.5876 32.1665C74.5876 32.4975 74.4903 32.7993 74.2956 33.0718C74.1058 33.3395 73.8113 33.5221 73.4122 33.6194L74.6679 35.7221H73.675ZM71.8717 33.028H72.7916C73.1031 33.028 73.3367 32.9502 73.4925 32.7944C73.6531 32.6387 73.7334 32.4294 73.7334 32.1665C73.7334 31.9037 73.6556 31.6993 73.4998 31.5533C73.344 31.4024 73.108 31.3269 72.7916 31.3269H71.8717V33.028Z" fill="#BF3448"/>
<path d="M80.4271 31.3196V32.809H82.1793V33.488H80.4271V35.0431H82.3984V35.7221H79.5948V30.6407H82.3984V31.3196H80.4271Z" fill="#BF3448"/>
<path d="M90.425 34.6853H88.3005L87.9354 35.7221H87.0666L88.8845 30.6407H89.8482L91.6662 35.7221H90.7901L90.425 34.6853ZM90.1914 34.0064L89.3664 31.6482L88.5341 34.0064H90.1914Z" fill="#BF3448"/>
<path d="M97.2314 35.0504H98.9471V35.7221H96.3991V30.648H97.2314V35.0504Z" fill="#BF3448"/>
<path d="M110.257 31.3196V32.809H112.009V33.488H110.257V35.0431H112.228V35.7221H109.425V30.6407H112.228V31.3196H110.257Z" fill="#BF3448"/>
<path d="M118.868 35.7732C118.527 35.7732 118.22 35.7148 117.948 35.5979C117.675 35.4763 117.461 35.3059 117.305 35.0869C117.149 34.8679 117.072 34.6123 117.072 34.3203H117.962C117.982 34.5393 118.067 34.7194 118.218 34.8606C118.374 35.0017 118.59 35.0723 118.868 35.0723C119.155 35.0723 119.379 35.0041 119.539 34.8679C119.7 34.7267 119.78 34.5466 119.78 34.3276C119.78 34.1572 119.729 34.0185 119.627 33.9114C119.53 33.8044 119.405 33.7216 119.255 33.6632C119.108 33.6048 118.904 33.5415 118.641 33.4734C118.31 33.3858 118.04 33.2982 117.831 33.2106C117.626 33.1181 117.451 32.9769 117.305 32.7871C117.159 32.5973 117.086 32.3442 117.086 32.0278C117.086 31.7358 117.159 31.4803 117.305 31.2612C117.451 31.0422 117.656 30.8743 117.918 30.7575C118.181 30.6407 118.485 30.5823 118.831 30.5823C119.323 30.5823 119.724 30.7064 120.036 30.9546C120.352 31.198 120.527 31.5338 120.561 31.9621H119.641C119.627 31.7772 119.539 31.619 119.379 31.4876C119.218 31.3561 119.006 31.2904 118.743 31.2904C118.505 31.2904 118.31 31.3513 118.159 31.473C118.009 31.5946 117.933 31.7699 117.933 31.9986C117.933 32.1544 117.979 32.2834 118.072 32.3856C118.169 32.4829 118.291 32.5608 118.437 32.6192C118.583 32.6776 118.782 32.7409 119.035 32.809C119.371 32.9015 119.644 32.994 119.853 33.0864C120.067 33.1789 120.247 33.3225 120.393 33.5172C120.544 33.707 120.62 33.9626 120.62 34.2838C120.62 34.5418 120.549 34.7851 120.408 35.0139C120.272 35.2426 120.07 35.4276 119.802 35.5687C119.539 35.705 119.228 35.7732 118.868 35.7732Z" fill="#BF3448"/>
<path d="M128.822 30.648V31.3269H127.472V35.7221H126.639V31.3269H125.281V30.648H128.822Z" fill="#BF3448"/>
<path d="M136.667 34.6853H134.542L134.177 35.7221H133.308L135.126 30.6407H136.09L137.908 35.7221H137.032L136.667 34.6853ZM136.433 34.0064L135.608 31.6482L134.776 34.0064H136.433Z" fill="#BF3448"/>
<path d="M145.919 30.648V31.3269H144.568V35.7221H143.736V31.3269H142.378V30.648H145.919Z" fill="#BF3448"/>
<path d="M151.537 31.3196V32.809H153.289V33.488H151.537V35.0431H153.508V35.7221H150.704V30.6407H153.508V31.3196H151.537Z" fill="#BF3448"/>
</svg>
