<svg width="46" height="46" viewBox="0 0 46 46" fill="none" xmlns="http://www.w3.org/2000/svg">
<rect opacity="0.1" width="46" height="46" rx="5" fill="#FE753F"/>
<path d="M29.5037 22.9267C30.9561 23.0967 32.2711 22.057 32.4411 20.6045C32.6109 19.1524 31.5713 17.8373 30.1188 17.6674C28.6666 17.4974 27.3515 18.537 27.182 19.9894C27.0116 21.4419 28.0515 22.7568 29.5037 22.9267Z" fill="#FE753F"/>
<path d="M17.9722 20.7735L21.9105 19.987L22.7574 21.349L19.6891 24.2667C20.1629 24.3864 20.6179 24.5646 21.0409 24.7978C21.2438 24.9096 21.4339 25.0387 21.6177 25.1635C21.9138 25.3646 22.1924 25.5582 22.4686 25.634C22.687 25.694 22.9732 25.6974 22.9913 25.6985C23.3803 25.6951 23.723 25.5869 24.0728 25.3588C24.9826 24.7656 26.0993 24.1511 27.4842 24.0903C27.5864 24.0858 27.6897 24.0835 27.7913 24.0835C28.2355 24.0835 28.6699 24.1271 29.0854 24.2118C28.8004 23.7567 23.7227 17.6036 23.7227 17.6036L23.5889 17.4435C23.2612 17.054 22.7129 16.8911 22.2073 17.0764L17.4255 18.8303C16.9644 18.9989 16.6822 19.4828 16.7812 19.979C16.8907 20.5272 17.424 20.8829 17.9722 20.7735Z" fill="#FE753F"/>
<path d="M35.3798 26.8911C34.728 27.1834 34.2421 27.3026 33.7025 27.3026C33.4899 27.3026 33.2701 27.2836 33.0302 27.2443C32.2313 27.1018 31.6619 26.6405 31.1111 26.1944C30.7724 25.92 30.4525 25.6608 30.0824 25.4699C29.4125 25.1227 28.6069 24.9392 27.752 24.9392C27.6634 24.9392 27.5732 24.9413 27.484 24.9452C26.3151 24.9965 25.3673 25.5165 24.517 26.0709C24.0182 26.3962 23.4265 26.5524 22.8895 26.5524C22.7276 26.5524 22.398 26.5168 22.1841 26.4551C21.7736 26.3367 21.4216 26.0976 21.0812 25.8665C20.9064 25.7477 20.7412 25.6356 20.5743 25.5436C19.8598 25.1496 19.0347 24.9414 18.1883 24.9414H18.1711C16.9861 24.9453 15.9144 25.3087 15.072 25.9921C13.899 26.9441 13.1249 27.2116 12.9042 27.2493C12.9042 27.2493 12.7191 27.2977 12.3216 27.2977C11.5602 27.2977 10.9238 27.0483 10.2851 26.7705C9.83644 26.5754 9.41359 26.4634 9 26.4307C9.08019 26.4771 9.15696 26.5255 9.23143 26.5766C9.55562 26.8026 9.82245 27.0773 10.0804 27.3429C10.2185 27.485 10.3488 27.6193 10.4873 27.7468C11.0295 28.2456 12.1486 28.8352 13.4366 28.8352C14.0902 28.8352 14.7226 28.6931 15.316 28.4127C15.4906 28.3302 15.6606 28.232 15.8405 28.128C16.1391 27.9557 16.4491 27.7821 16.7927 27.6664C17.2263 27.5203 17.8994 27.5687 17.8994 27.5687C18.5972 27.6133 19.1198 27.943 19.4971 28.2252C20.6465 29.0851 21.731 29.4909 22.9101 29.5023L22.9702 29.5027C23.7814 29.5027 24.5236 29.3463 25.1763 29.038C25.4803 28.8943 25.7697 28.6829 26.0763 28.459C26.6519 28.0384 27.2473 27.6035 28.0141 27.5734C28.0597 27.5715 28.1061 27.5706 28.1532 27.5706C28.573 27.5706 29.2052 27.6435 29.8326 27.991C30.5878 28.4108 31.5015 28.8396 32.5557 28.8396C32.7089 28.8396 32.8652 28.8307 33.0204 28.8131C33.9907 28.7033 34.8109 28.3456 35.4581 27.7498C35.5969 27.6221 35.7276 27.4874 35.8659 27.3448C36.1609 27.0409 36.4659 26.7266 36.8511 26.488C36.8801 26.47 36.9091 26.4526 36.9384 26.4356C36.4728 26.4771 35.9795 26.6222 35.3798 26.8911Z" fill="#FE753F"/>
</svg>
